<svg width="16" height="16" viewBox="0 0 16 16" fill="none" xmlns="http://www.w3.org/2000/svg">
<path d="M12.9844 2.65625C13.1262 2.65625 13.2543 2.71536 13.3453 2.81028C13.4406 2.90133 13.5 3.02967 13.5 3.17187V13.4219C13.5 13.56 13.3881 13.6719 13.25 13.6719H12.5C12.3619 13.6719 12.25 13.56 12.25 13.4219V4.78958L3.73253 13.307C3.63489 13.4047 3.47661 13.4047 3.37898 13.307L2.84864 12.7767C2.75102 12.6791 2.75102 12.5208 2.84864 12.4232L11.3656 3.90625H2.73437C2.5963 3.90625 2.48438 3.79433 2.48438 3.65625V2.90625C2.48438 2.76817 2.5963 2.65625 2.73437 2.65625H12.9844Z" fill="white"/>
</svg>
