<svg width="24" height="24" viewBox="0 0 24 24" fill="none" xmlns="http://www.w3.org/2000/svg">
<path d="M5.52649 4.43561L4.43424 5.52786C4.33715 5.62495 4.33715 5.72204 4.43424 5.81913L10.1503 11.5352L4.72593 16.9597C4.62884 17.0568 4.62884 17.1538 4.72593 17.2509L5.81818 18.3432C5.91527 18.4403 6.01236 18.4403 6.10945 18.3432L11.5339 12.9188L17.25 18.6349C17.3471 18.732 17.4442 18.732 17.5412 18.6349L18.6335 17.5426C18.7306 17.4455 18.7306 17.3484 18.6335 17.2514L12.9174 11.5352L18.3427 6.10997C18.4397 6.01288 18.4397 5.91579 18.3427 5.8187L17.2504 4.72645C17.1533 4.62936 17.0562 4.62936 16.9591 4.72645L11.5339 10.1517L5.81776 4.43561C5.72067 4.33852 5.62358 4.33852 5.52649 4.43561Z" fill="white"/>
</svg>
