<svg width="24" height="24" viewBox="0 0 24 24" fill="none" xmlns="http://www.w3.org/2000/svg">
<path d="M16.1742 8.84548C16.3125 8.84548 16.4508 8.85017 16.5867 8.8572C16.0148 5.8408 12.8766 3.53455 9.08906 3.53455C4.89844 3.53455 1.5 6.36111 1.5 9.84861C1.5 11.7494 2.52187 13.4627 4.12266 14.6205C4.18868 14.6671 4.24253 14.7289 4.27965 14.8007C4.31677 14.8725 4.33607 14.9522 4.33594 15.033C4.33594 15.0892 4.32422 15.1408 4.31016 15.1947C4.18125 15.6705 3.97734 16.4322 3.96797 16.4674C3.95156 16.5283 3.92813 16.5892 3.92813 16.6525C3.92813 16.7908 4.04063 16.9056 4.18125 16.9056C4.23516 16.9056 4.27969 16.8845 4.32656 16.8588L5.98828 15.9002C6.1125 15.8275 6.24609 15.783 6.39141 15.783C6.46641 15.783 6.54141 15.7947 6.61406 15.8158C7.38984 16.0385 8.22656 16.1627 9.09141 16.1627C9.23203 16.1627 9.37031 16.1603 9.50859 16.1533C9.34219 15.6611 9.25313 15.1431 9.25313 14.6064C9.25313 11.4236 12.3516 8.84548 16.1742 8.84548V8.84548ZM11.6203 6.81814C12.1781 6.81814 12.6328 7.27048 12.6328 7.8283C12.6328 8.38611 12.1805 8.83845 11.6203 8.83845C11.0625 8.83845 10.6078 8.38611 10.6078 7.8283C10.6078 7.27048 11.0625 6.81814 11.6203 6.81814ZM6.56016 8.83845C6.00234 8.83845 5.54766 8.38611 5.54766 7.8283C5.54766 7.27048 6 6.81814 6.56016 6.81814C7.12031 6.81814 7.57266 7.27048 7.57266 7.8283C7.57266 8.38611 7.11797 8.83845 6.56016 8.83845ZM20.3133 18.5791C21.6469 17.6135 22.4977 16.1885 22.4977 14.6017C22.4977 11.6955 19.6664 9.34001 16.1719 9.34001C12.6797 9.34001 9.84609 11.6955 9.84609 14.6017C9.84609 17.508 12.6773 19.8635 16.1719 19.8635C16.8938 19.8635 17.5922 19.7603 18.2367 19.5752C18.2977 19.5564 18.3586 19.547 18.4219 19.547C18.5438 19.547 18.6539 19.5845 18.757 19.6431L20.1422 20.44C20.182 20.4635 20.2195 20.4799 20.2641 20.4799C20.2918 20.4801 20.3194 20.4748 20.3451 20.4644C20.3709 20.4539 20.3943 20.4385 20.4141 20.4189C20.4336 20.3992 20.449 20.3757 20.4595 20.35C20.47 20.3243 20.4752 20.2967 20.475 20.2689C20.475 20.2174 20.4539 20.1658 20.4422 20.1142C20.4352 20.0861 20.2641 19.451 20.1563 19.0525C20.1445 19.008 20.1352 18.9635 20.1352 18.9189C20.1375 18.7806 20.2078 18.6564 20.3133 18.5791V18.5791ZM14.0672 13.7627C13.6008 13.7627 13.2234 13.3853 13.2234 12.9213C13.2234 12.4572 13.6008 12.0799 14.0672 12.0799C14.5336 12.0799 14.9109 12.4572 14.9109 12.9213C14.9109 13.3853 14.5313 13.7627 14.0672 13.7627ZM18.2836 13.7627C17.8172 13.7627 17.4398 13.3853 17.4398 12.9213C17.4398 12.4572 17.8172 12.0799 18.2836 12.0799C18.75 12.0799 19.1273 12.4572 19.1273 12.9213C19.1262 13.1445 19.0369 13.3582 18.8788 13.5158C18.7208 13.6734 18.5068 13.7622 18.2836 13.7627V13.7627Z" fill="#A6A6A6"/>
</svg>
